<svg width="231" height="126" viewBox="0 0 231 126" fill="none" xmlns="http://www.w3.org/2000/svg">
<path d="M125.5 10.5C125.5 15.4056 121.313 19.5 116 19.5C110.687 19.5 106.5 15.4056 106.5 10.5C106.5 5.59443 110.687 1.5 116 1.5C121.313 1.5 125.5 5.59443 125.5 10.5Z" stroke="#EAECEE" stroke-width="3"/>
<path d="M181.75 27.5C181.75 32.6846 177.336 37 171.75 37C166.164 37 161.75 32.6846 161.75 27.5C161.75 22.3154 166.164 18 171.75 18C177.336 18 181.75 22.3154 181.75 27.5Z" stroke="#EAECEE" stroke-width="3"/>
<rect width="17.7072" height="3.54145" rx="1.77072" transform="matrix(-0.920155 -0.391555 -0.391555 0.920155 152.68 15.1833)" fill="#8A939D"/>
<path d="M50.25 27.5C50.25 32.6846 54.6636 37 60.25 37C65.8364 37 70.25 32.6846 70.25 27.5C70.25 22.3154 65.8364 18 60.25 18C54.6636 18 50.25 22.3154 50.25 27.5Z" stroke="#EAECEE" stroke-width="3"/>
<rect x="79.3199" y="15.1833" width="17.7072" height="3.54144" rx="1.77072" transform="rotate(-23.0513 79.3199 15.1833)" fill="#8A939D"/>
<rect x="185.031" y="42" width="17.7072" height="3.54145" rx="1.77072" transform="rotate(58.8643 185.031 42)" fill="#8A939D"/>
<path d="M196.236 62.3756C196.197 63.0789 195.463 63.5226 194.822 63.2299L187.153 59.7256C186.422 59.3917 186.364 58.3757 187.052 57.9602L195.187 53.0458C195.875 52.6302 196.747 53.1547 196.703 53.957L196.236 62.3756Z" fill="#8A939D"/>
<rect width="17.7072" height="3.54145" rx="1.77072" transform="matrix(0.517067 -0.855945 -0.855945 -0.517067 36.7812 63.8065)" fill="#8A939D"/>
<path d="M47.9862 43.4309C47.9472 42.7276 47.2128 42.2839 46.5721 42.5766L38.9033 46.0809C38.1724 46.4148 38.114 47.4309 38.8018 47.8464L46.937 52.7608C47.6249 53.1763 48.497 52.6519 48.4526 51.8495L47.9862 43.4309Z" fill="#8A939D"/>
<path d="M218.448 72.25C219.901 72.25 221.149 72.7724 222.194 73.8171C223.239 74.8618 223.762 76.1102 223.762 77.5622C223.762 78.7486 223.762 80.2315 223.762 81.1213C224.2 81.1213 225.077 81.1213 225.515 81.1213C227.003 81.1213 228.261 81.6348 229.288 82.6618C230.315 83.6889 230.829 84.9461 230.829 86.4335C230.829 89.9749 230.829 94.4017 230.829 97.0578C229.501 97.0578 226.844 97.0578 225.515 97.0578C224.134 97.0578 222.947 97.5182 221.955 98.439C220.964 99.3598 220.397 100.493 220.255 101.839C220.237 102.016 220.215 102.237 220.202 102.37C220.202 103.751 220.662 104.938 221.583 105.929C222.504 106.921 223.656 107.487 225.037 107.629C225.197 107.647 225.396 107.669 225.515 107.682C226.844 107.682 229.501 107.682 230.829 107.682C230.829 110.776 230.829 116.965 230.829 120.06C230.829 121.512 230.315 122.76 229.288 123.805C228.261 124.849 227.003 125.372 225.515 125.372C206.033 125.372 181.679 125.372 167.067 125.372C165.792 125.372 164.614 125.053 163.533 124.415C162.453 123.778 161.594 122.91 160.956 121.813C160.319 120.75 160 119.581 160 118.306C160 105.309 160 89.063 160 79.3152C160 78.0403 160.319 76.8627 160.956 75.7826C161.594 74.7025 162.444 73.8437 163.507 73.2062C164.605 72.5687 165.792 72.25 167.067 72.25C184.194 72.25 205.603 72.25 218.448 72.25ZM230.829 99.7139C230.829 101.042 230.829 103.698 230.829 105.026C229.501 105.026 226.844 105.026 225.515 105.026C224.807 105.026 224.187 104.76 223.656 104.229C223.124 103.698 222.859 103.078 222.859 102.37C222.859 101.626 223.124 100.998 223.656 100.484C224.187 99.9707 224.807 99.7139 225.515 99.7139C227.287 99.7139 229.501 99.7139 230.829 99.7139ZM217.545 75.8092C205.151 75.8092 180.364 75.8092 167.97 75.8092C167.226 75.8092 166.598 76.0659 166.084 76.5794C165.57 77.0929 165.313 77.7215 165.313 78.4652C165.313 79.1381 165.535 79.7224 165.978 80.2183C166.42 80.7141 166.961 80.9974 167.598 81.0682C167.722 81.0859 167.877 81.108 167.97 81.1213C181.028 81.1213 207.144 81.1213 220.202 81.1213C220.202 80.4573 220.202 79.1293 220.202 78.4652C220.202 77.7215 219.945 77.0929 219.431 76.5794C218.918 76.0659 218.289 75.8092 217.545 75.8092Z" fill="#EAECEE"/>
</svg>
