<?xml version="1.0" encoding="UTF-8"?><svg id="Layer_2" xmlns="http://www.w3.org/2000/svg" viewBox="0 0 508.14 508"><defs><style>.cls-1{fill:#f96;}.cls-2{fill:none;stroke:#070707;stroke-miterlimit:10;stroke-width:8px;}.cls-3{fill:#9b5efc;}.cls-4{fill:#4080d7;}</style></defs><g id="Layer_2-2"><g><g><path class="cls-3" d="M503.98,244.97c.11,3,.16,6.01,.16,9.03,0,37.19-8.12,72.47-22.68,104.19l-1.56,1.04c-1.32,.87-3.14,1.98-5.38,3.12-6.44,3.27-11.9,4.44-14.95,5.08-4.39,.93-10.63,1.78-18.08,1.28-10.49-.71-18.01-3.73-19.8-4.48-4.33-1.8-7.58-3.77-9.51-4.95-5-3.06-8.38-5.89-10.28-7.48-19.46-16.31-24.48-20.3-25.83-21.37-6.98-5.53-10.47-8.29-14.04-10.45-6-3.63-16.9-10.06-32.25-11.36-9.05-.77-16.41,.53-20.49,1.47-6.75,1.57-11.54,3.83-14.92,5.41-6.72,3.15-12.17,6.75-22.19,14.61-12.64,9.91-12.69,11.02-23.39,19.47-12.06,9.53-18.26,14.36-26.58,17.59-2.48,.97-11.54,4.32-23.85,4.66-5.39,.15-16.97,.34-29.71-5.51-3.01-1.39-4.96-2.59-8.81-4.97-4.55-2.81-10.27-6.71-22.2-16.98-11.46-9.84-11.58-10.87-19.28-16.8-5.68-4.37-9.2-7.05-14.65-9.93-10.56-5.6-19.5-7.27-21.78-7.67-8.37-1.45-14.91-1-17.03-.81-1.71,.14-9.31,.86-18.45,4.39,0,0-6.52,2.51-13.9,7.06-3.09,1.91-6.76,4.53-7.15,4.81-1.22,.87-1.88,1.36-2.4,1.77-2.14,1.67-3.79,3.2-4.93,4.31l-1.29,1.19s-.03-.07-.04-.1c-13.69-38.55-12.95-70.17-12.6-78.59,.21-5.22,.64-10.54,1.28-15.94,.22-.07,.55-.18,.96-.33,1.26-.45,2.16-.89,2.49-1.04,1.69-.82,2.52-1.08,4.46-1.97,2.07-.95,4.25-2.18,8.52-4.6,2.15-1.22,2.06-1.19,4.75-2.72,2.61-1.48,4.52-2.56,6.38-3.56,3.72-2.01,5.95-3.2,8.87-4.38,1.51-.61,4.7-1.8,8.89-2.73,2.85-.63,4.99-.88,8.64-1.31,2.92-.34,4.81-.57,7.13-.66,1.91-.07,6.35-.14,11.89,.82,1.49,.25,7.19,1.3,14.21,4.37,4.39,1.93,7.42,3.83,10.45,5.76,5.6,3.55,9.46,6.76,13.46,10.09,3.55,2.96,6.47,5.62,10.71,9.49,.73,.67,2.43,2.24,5.8,5.36,8.21,7.59,8.34,7.73,9.54,8.79,3.83,3.37,6.47,5.7,10.39,8.48,5.58,3.93,10.08,6.17,11.11,6.68,4.18,2.05,7.72,3.31,9.87,4.02,2.83,.92,6.57,2.12,11.64,2.77,5.74,.74,10.17,.39,12.73,.17,2.18-.19,7.29-.73,13.62-2.62,1.67-.51,7.27-2.25,14.05-5.97,5.53-3.03,9.19-5.92,14-9.71,1.69-1.33,5.23-4.4,12.31-10.54,5.33-4.63,6.76-5.91,10.39-8.98,4.29-3.64,6.44-5.46,9.33-7.68,3.43-2.63,6.56-5.03,11.07-7.76,2.43-1.46,6.23-3.73,11.61-5.92,4.71-1.92,8.46-2.89,9.63-3.19,5.92-1.48,10.69-1.83,12.87-1.95,2.27-.11,7.12-.25,13.22,.65,12.39,1.82,21.09,6.59,23.4,7.91,4.37,2.49,7.64,5.06,12.04,8.53,1.79,1.4,2.22,1.81,9.67,8.07,3.93,3.31,3.13,2.61,9.96,8.35,10.27,8.63,10.06,8.69,13.34,11.24,5.03,3.9,7.96,6.18,12.46,8.67,7.09,3.93,13.16,5.67,15.21,6.22,9.52,2.56,17.19,2.31,21.37,2.14,3.43-.13,7.05-.28,11.81-1.43,7.39-1.79,12.58-4.8,16.53-7.14,1.13-.67,6.06-3.64,11.7-8.55,3.48-3.04,6.07-5.81,9.26-9.23,2.74-2.93,4.94-5.46,6.47-7.27l.35-.43Z"/><path class="cls-1" d="M503.98,244.97l-.35,.43c-1.53,1.81-3.73,4.34-6.47,7.27-3.19,3.42-5.78,6.19-9.26,9.23-5.64,4.91-10.57,7.88-11.7,8.55-3.95,2.34-9.14,5.35-16.53,7.14-4.76,1.15-8.38,1.3-11.81,1.43-4.18,.17-11.85,.42-21.37-2.14-2.05-.55-8.12-2.29-15.21-6.22-4.5-2.49-7.43-4.77-12.46-8.67-3.28-2.55-3.07-2.61-13.34-11.24-6.83-5.74-6.03-5.04-9.96-8.35-7.45-6.26-7.88-6.67-9.67-8.07-4.4-3.47-7.67-6.04-12.04-8.53-2.31-1.32-11.01-6.09-23.4-7.91-6.1-.9-10.95-.76-13.22-.65-2.18,.12-6.95,.47-12.87,1.95-1.17,.3-4.92,1.27-9.63,3.19-5.38,2.19-9.18,4.46-11.61,5.92-4.51,2.73-7.64,5.13-11.07,7.76-2.89,2.22-5.04,4.04-9.33,7.68-3.63,3.07-5.06,4.35-10.39,8.98-7.08,6.14-10.62,9.21-12.31,10.54-4.81,3.79-8.47,6.68-14,9.71-6.78,3.72-12.38,5.46-14.05,5.97-6.33,1.89-11.44,2.43-13.62,2.62-2.56,.22-6.99,.57-12.73-.17-5.07-.65-8.81-1.85-11.64-2.77-2.15-.71-5.69-1.97-9.87-4.02-1.03-.51-5.53-2.75-11.11-6.68-3.92-2.78-6.56-5.11-10.39-8.48-1.2-1.06-1.33-1.2-9.54-8.79-3.37-3.12-5.07-4.69-5.8-5.36-4.24-3.87-7.16-6.53-10.71-9.49-4-3.33-7.86-6.54-13.46-10.09-3.03-1.93-6.06-3.83-10.45-5.76-7.02-3.07-12.72-4.12-14.21-4.37-5.54-.96-9.98-.89-11.89-.82-2.32,.09-4.21,.32-7.13,.66-3.65,.43-5.79,.68-8.64,1.31-4.19,.93-7.38,2.12-8.89,2.73-2.92,1.18-5.15,2.37-8.87,4.38-1.86,1-3.77,2.08-6.38,3.56-2.69,1.53-2.6,1.5-4.75,2.72-4.27,2.42-6.45,3.65-8.52,4.6-1.94,.89-2.77,1.15-4.46,1.97-.33,.15-1.23,.59-2.49,1.04-.41,.15-.74,.26-.96,.33C17.56,135.58,106.08,4,254.14,4c135.05,0,245.09,107.08,249.84,240.97Z"/><path class="cls-4" d="M479.9,359.23l1.56-1.04c-39.5,86.05-126.43,145.81-227.32,145.81-114.25,0-206.16-83.58-237.36-171.31l1.29-1.19c1.14-1.11,2.79-2.64,4.93-4.31,.52-.41,1.18-.9,2.4-1.77,.39-.28,4.06-2.9,7.15-4.81,7.38-4.55,13.9-7.06,13.9-7.06,9.14-3.53,16.74-4.25,18.45-4.39,2.12-.19,8.66-.64,17.03,.81,2.28,.4,11.22,2.07,21.78,7.67,5.45,2.88,8.97,5.56,14.65,9.93,7.7,5.93,7.82,6.96,19.28,16.8,11.93,10.27,17.65,14.17,22.2,16.98,3.85,2.38,5.8,3.58,8.81,4.97,12.74,5.85,24.32,5.66,29.71,5.51,12.31-.34,21.37-3.69,23.85-4.66,8.32-3.23,14.52-8.06,26.58-17.59,10.7-8.45,10.75-9.56,23.39-19.47,10.02-7.86,15.47-11.46,22.19-14.61,3.38-1.58,8.17-3.84,14.92-5.41,4.08-.94,11.44-2.24,20.49-1.47,15.35,1.3,26.25,7.73,32.25,11.36,3.57,2.16,7.06,4.92,14.04,10.45,1.35,1.07,6.37,5.06,25.83,21.37,1.9,1.59,5.28,4.42,10.28,7.48,1.93,1.18,5.18,3.15,9.51,4.95,1.79,.75,9.31,3.77,19.8,4.48,7.45,.5,13.69-.35,18.08-1.28,3.05-.64,8.51-1.81,14.95-5.08,2.24-1.14,4.06-2.25,5.38-3.12Z"/></g><g><path class="cls-2" d="M503.98,244.97c.11,3,.16,6.01,.16,9.03,0,37.19-8.12,72.47-22.68,104.19-39.5,86.05-126.43,145.81-227.32,145.81-114.25,0-206.16-83.58-237.36-171.31-.02-.03-.03-.07-.04-.1-13.69-38.55-12.95-70.17-12.6-78.59,.21-5.22,.64-10.54,1.28-15.94C17.56,135.58,106.08,4,254.14,4c135.05,0,245.09,107.08,249.84,240.97Z"/><path class="cls-2" d="M481.46,358.19l-1.56,1.04c-1.32,.87-3.14,1.98-5.38,3.12-6.44,3.27-11.9,4.44-14.95,5.08-4.39,.93-10.63,1.78-18.08,1.28-10.49-.71-18.01-3.73-19.8-4.48-4.33-1.8-7.58-3.77-9.51-4.95-5-3.06-8.38-5.89-10.28-7.48-19.46-16.31-24.48-20.3-25.83-21.37-6.98-5.53-10.47-8.29-14.04-10.45-6-3.63-16.9-10.06-32.25-11.36-9.05-.77-16.41,.53-20.49,1.47-6.75,1.57-11.54,3.83-14.92,5.41-6.72,3.15-12.17,6.75-22.19,14.61-12.64,9.91-12.69,11.02-23.39,19.47-12.06,9.53-18.26,14.36-26.58,17.59-2.48,.97-11.54,4.32-23.85,4.66-5.39,.15-16.97,.34-29.71-5.51-3.01-1.39-4.96-2.59-8.81-4.97-4.55-2.81-10.27-6.71-22.2-16.98-11.46-9.84-11.58-10.87-19.28-16.8-5.68-4.37-9.2-7.05-14.65-9.93-10.56-5.6-19.5-7.27-21.78-7.67-8.37-1.45-14.91-1-17.03-.81-1.71,.14-9.31,.86-18.45,4.39,0,0-6.52,2.51-13.9,7.06-3.09,1.91-6.76,4.53-7.15,4.81-1.22,.87-1.88,1.36-2.4,1.77-2.14,1.67-3.79,3.2-4.93,4.31l-1.29,1.19"/><path class="cls-2" d="M5.42,238.06c.22-.07,.55-.18,.96-.33,1.26-.45,2.16-.89,2.49-1.04,1.69-.82,2.52-1.08,4.46-1.97,2.07-.95,4.25-2.18,8.52-4.6,2.15-1.22,2.06-1.19,4.75-2.72,2.61-1.48,4.52-2.56,6.38-3.56,3.72-2.01,5.95-3.2,8.87-4.38,1.51-.61,4.7-1.8,8.89-2.73,2.85-.63,4.99-.88,8.64-1.31,2.92-.34,4.81-.57,7.13-.66,1.91-.07,6.35-.14,11.89,.82,1.49,.25,7.19,1.3,14.21,4.37,4.39,1.93,7.42,3.83,10.45,5.76,5.6,3.55,9.46,6.76,13.46,10.09,3.55,2.96,6.47,5.62,10.71,9.49,.73,.67,2.43,2.24,5.8,5.36,8.21,7.59,8.34,7.73,9.54,8.79,3.83,3.37,6.47,5.7,10.39,8.48,5.58,3.93,10.08,6.17,11.11,6.68,4.18,2.05,7.72,3.31,9.87,4.02,2.83,.92,6.57,2.12,11.64,2.77,5.74,.74,10.17,.39,12.73,.17,2.18-.19,7.29-.73,13.62-2.62,1.67-.51,7.27-2.25,14.05-5.97,5.53-3.03,9.19-5.92,14-9.71,1.69-1.33,5.23-4.4,12.31-10.54,5.33-4.63,6.76-5.91,10.39-8.98,4.29-3.64,6.44-5.46,9.33-7.68,3.43-2.63,6.56-5.03,11.07-7.76,2.43-1.46,6.23-3.73,11.61-5.92,4.71-1.92,8.46-2.89,9.63-3.19,5.92-1.48,10.69-1.83,12.87-1.95,2.27-.11,7.12-.25,13.22,.65,12.39,1.82,21.09,6.59,23.4,7.91,4.37,2.49,7.64,5.06,12.04,8.53,1.79,1.4,2.22,1.81,9.67,8.07,3.93,3.31,3.13,2.61,9.96,8.35,10.27,8.63,10.06,8.69,13.34,11.24,5.03,3.9,7.96,6.18,12.46,8.67,7.09,3.93,13.16,5.67,15.21,6.22,9.52,2.56,17.19,2.31,21.37,2.14,3.43-.13,7.05-.28,11.81-1.43,7.39-1.79,12.58-4.8,16.53-7.14,1.13-.67,6.06-3.64,11.7-8.55,3.48-3.04,6.07-5.81,9.26-9.23,2.74-2.93,4.94-5.46,6.47-7.27l.35-.43"/></g></g></g></svg>