<svg xmlns="http://www.w3.org/2000/svg" xmlns:xlink="http://www.w3.org/1999/xlink" viewBox="0 0 436.11 399.24">
    <defs>
        <symbol id="a" viewBox="0 0 436.11 181.19">
            <path d="M2.06 108.65c-1.68 9.04-6.54 35.21 9 54 8.21 9.93 22.13 17.82 36 18 45.24.6 54.08-81.24 99-90 49.13-9.58 70.56 82.05 144 90 64.1 6.94 133.88-53.54 144-108 1.68-9.04 6.54-35.21-9-54-8.21-9.93-22.13-17.82-36-18-45.24-.6-54.28 80.26-99 90-47.75 10.39-70.79-81.3-144-90-64.02-7.61-133.88 53.53-144 108Z" style="fill:#fff"/>
        </symbol>
    </defs>
    <use width="436.11" height="181.19" xlink:href="#a"/>
    <use width="436.11" height="181.19" transform="translate(0 217.11)" xlink:href="#a"/>
</svg>
