<?xml version="1.0" encoding="UTF-8"?><svg id="Layer_2" xmlns="http://www.w3.org/2000/svg" xmlns:xlink="http://www.w3.org/1999/xlink" viewBox="0 0 436.11 399.24"><defs><style>.cls-1,.cls-2{fill:#fff;}.cls-2{opacity:.47;}</style><symbol id="nautilus-half" viewBox="0 0 436.11 181.19"><g><path class="cls-1" d="M2.06,108.65c-1.68,9.04-6.54,35.21,9,54,8.21,9.93,22.13,17.82,36,18,45.24,.6,54.08-81.24,99-90,49.13-9.58,70.56,82.05,144,90,64.1,6.94,133.88-53.54,144-108,1.68-9.04,6.54-35.21-9-54-8.21-9.93-22.13-17.82-36-18-45.24-.6-54.28,80.26-99,90C242.31,101.04,219.27,9.35,146.06,.65,82.04-6.96,12.18,54.18,2.06,108.65Z"/><path class="cls-2" d="M137.06,81.65"/></g></symbol></defs><g id="Layer_1-2"><use width="436.11" height="181.19" transform="" xlink:href="#nautilus-half"/><use width="436.11" height="181.19" transform="translate(0 217.11)" xlink:href="#nautilus-half"/></g></svg>