<?xml version="1.0" encoding="utf-8"?>
<!-- Generator: Adobe Illustrator 23.0.0, SVG Export Plug-In . SVG Version: 6.00 Build 0)  -->
<svg version="1.1"
	 id="Layer_1" inkscape:version="0.92.4 (5da689c313, 2019-01-14)" sodipodi:docname="nano-logo-cropped.svg" xmlns:cc="http://creativecommons.org/ns#" xmlns:dc="http://purl.org/dc/elements/1.1/" xmlns:inkscape="http://www.inkscape.org/namespaces/inkscape" xmlns:rdf="http://www.w3.org/1999/02/22-rdf-syntax-ns#" xmlns:sodipodi="http://sodipodi.sourceforge.net/DTD/sodipodi-0.dtd" xmlns:svg="http://www.w3.org/2000/svg"
	 xmlns="http://www.w3.org/2000/svg" xmlns:xlink="http://www.w3.org/1999/xlink" x="0px" y="0px" viewBox="0 0 213.2 211.2"
	 style="enable-background:new 0 0 213.2 211.2;" xml:space="preserve">
<style type="text/css">
	.st0{fill:#4A90E2;}
	.st1{fill:#000034;}
	.st2{display:none;fill:none;}
</style>
<sodipodi:namedview  bordercolor="#666666" borderopacity="1" gridtolerance="10" guidetolerance="10" id="namedview3726" inkscape:current-layer="Layer_1" inkscape:cx="755.86146" inkscape:cy="-59.76094" inkscape:pageopacity="0" inkscape:pageshadow="2" inkscape:window-height="1057" inkscape:window-maximized="1" inkscape:window-width="1856" inkscape:window-x="56" inkscape:window-y="-8" inkscape:zoom="0.4804542" objecttolerance="10" pagecolor="#ffffff" showgrid="false">
	</sodipodi:namedview>
<g id="g3723" transform="translate(-72.900048,-228.05002)">
	<circle class="st0" cx="179.5" cy="332.8" r="106.6"/>
	<path id="path3721" inkscape:connector-curvature="0" class="st1" d="M239.6,292.7c0,11.1-9,20-20,20c-15,0-20,5-20,20
		c0,11.1-9,20-20,20c-15,0-20,5-20,20c0,11.1-9,20-20,20s-20-9-20-20c0-11.1,9-20,20-20c15,0,20-5,20-20c0-11.1,9-20,20-20
		c15,0,20-5,20-20c0-11.1,9-20,20-20S239.6,281.7,239.6,292.7z"/>
	<path id="path3721_1_" inkscape:connector-curvature="0" class="st1" d="M139.4,272.7c11,0,20,8.9,20,20c0,15,5,20,20,20
		c11,0,20,8.9,20,20c0,15,5,20,20,20c11,0,20,8.9,20,20c0,11-9,20-20,20s-20-8.9-20-20c0-15-5-20-20-20c-11,0-20-8.9-20-20
		c0-15-5-20-20-20c-11,0-20-8.9-20-20C119.4,281.7,128.4,272.7,139.4,272.7z"/>
</g>
<rect x="283.5" y="24.2" class="st2" width="2.7" height="22.7"/>
<rect x="244.2" y="58.1" class="st2" width="764" height="120"/>
<text transform="matrix(1 0 0 1 244.2001 149.0578)" style="display:none;fill:#000034;enable-background:new    ; font-family:'ArialRoundedMTBold'; font-size:125px; letter-spacing:-1;">Nanswap</text>
</svg>
