<svg xmlns="http://www.w3.org/2000/svg" viewBox="0 0 211.77 280.99"><defs><style>.a{fill:#8c2bbc;}.b{fill:#fff;}</style></defs><path class="a" d="M201.79,698.56l-32-11.11a7.63,7.63,0,0,1-5.11-7.69l10.71-168.55a7.63,7.63,0,0,1,9.13-7l21.32,4.32a7.62,7.62,0,0,1,6.12,7.47V691.35A7.63,7.63,0,0,1,201.79,698.56Z" transform="translate(-164.62 -418.99)"/><path class="a" d="M376.36,666.87,365.21,500.31a10.92,10.92,0,0,0-12.46-10.08l-13.21,1.9a12.41,12.41,0,0,1,.32,1.52,11.8,11.8,0,0,1-23.39,3.16,12.26,12.26,0,0,1-.1-1.35l-47.6,6.85c.07.31.14.62.18.94a11.8,11.8,0,0,1-23.39,3.17c0-.25,0-.51-.06-.76l-21.62,3.11a10.92,10.92,0,0,0-9.37,10.59l-3.4,169.47a10.92,10.92,0,0,0,12.54,11l143.43-21.45A10.93,10.93,0,0,0,376.36,666.87Z" transform="translate(-164.62 -418.99)"/><path class="a" d="M293.58,419c-21.14,0-38.34,18.47-38.34,41.16v48.58a2.32,2.32,0,0,0,2.57,2.31h0a2.32,2.32,0,0,0,2.07-2.31V460.15c0-20.13,15.12-36.51,33.7-36.51s33.69,16.38,33.69,36.51v40.69a2.33,2.33,0,0,0,2.58,2.31h0a2.33,2.33,0,0,0,2.07-2.31V460.15C331.92,437.46,314.72,419,293.58,419Z" transform="translate(-164.62 -418.99)"/><path class="a" d="M258.3,430.67c-18.09,3.3-31.9,20.23-31.9,40.57v31.34a2.33,2.33,0,0,0,2.63,2.31h0a2.33,2.33,0,0,0,2-2.31V471.24c0-18,12.14-33.06,28-36a2.35,2.35,0,0,0,1.52-1l0-.06A2.3,2.3,0,0,0,258.3,430.67Z" transform="translate(-164.62 -418.99)"/><path class="a" d="M307.23,493.71h0a2.31,2.31,0,0,0,2-2.29V473c0-20.34-13.82-37.28-31.91-40.57A2.3,2.3,0,0,0,275,436l0,.05a2.34,2.34,0,0,0,1.53,1c15.89,2.93,28,17.95,28,36v18.42A2.31,2.31,0,0,0,307.23,493.71Z" transform="translate(-164.62 -418.99)"/><path class="b" d="M264.69,670.89a8.77,8.77,0,0,1-9.45-9.71l1.6-118.76a9.6,9.6,0,1,1,19.16.26l-1.6,118.76a8.75,8.75,0,0,1-9.71,9.45Zm-.36-85A58.85,58.85,0,0,1,272.9,558a55.21,55.21,0,0,1,19.67-19.15,51.53,51.53,0,0,1,26.7-6.7q11.6.15,17.86,3.52t4.66,9.65c-.71,2.51-1.87,4.18-3.47,5a10.6,10.6,0,0,1-5.82.93c-2.26-.19-4.83-.4-7.68-.6q-14.1-1.45-25.13,2.56a38,38,0,0,0-17.57,12.49,33.13,33.13,0,0,0-6.7,20.34Z" transform="translate(-164.62 -418.99)"/></svg>